{"title":"Nobody.Knows.2004.DVDRip.XviD.AC3.HORiZON-ArtSubs","uid":7618314,"size":2094332609,"categoryP":"video","categoryS":"movies","magnet":"?xt=urn:btih:41e1d642616966fa857307bd46eedf7c84654cfe&amp;dn=Nobody.Knows.2004.DVDRip.XviD.AC3.HORiZON-ArtSubs&amp;tr=udp%3A%2F%2Ftracker.openbittorrent.com%3A80&amp;tr=udp%3A%2F%2Fopen.demonii.com%3A1337&amp;tr=udp%3A%2F%2Ftracker.coppersurfer.tk%3A6969&amp;tr=udp%3A%2F%2Fexodus.desync.com%3A6969","seeders":23,"leechers":3,"uploader":"artsubs","files":-1,"time":1347261754,"description":"Title: Dare Mo Shiranai aka Nobody Knows\nYear: 2004 \nCountry: Japan\nLanguage: Japanese\nGenre: Drama\nRuntime: 141 min\nSource: DVDRIP\nSize: 1,95 GB\nDirected by: Hirokazu Koreeda\nStarring:\nYuya Yagira  ...  Akira Fukushima\nAyu Kitaura  ...  Kyoko\nHiei Kimura  ...  Shigeru\nMomoko Shimizu  ...  Yuki\nHanae Kan  ...  Saki\nYou  ...  Keiko, the mother\nKazuyoshi Kushida  ...  Yoshinaga, The Landlord\nYukiko Okamoto  ...  Eriko Yoshinaga\n\nIMDB Rating: 8.0/10\n\nIMDB Link: http://www.imdb.com/title/tt0408664/\n\n\nAudio: Japanese\n\nTHIS TORRENT HAS SOFT SUBTITLES IN ENGLISH AND BRAZILIAN PORTUGUESE.\n\n\nPlot: In Tokyo, the reckless single mother Keiko moves to a small apartment with her twelve years old son Akira Fukushima and hidden in the luggage, his siblings Kyoko, Shigeru and Yuki. The children have different fathers and do not have schooling, but they have a happy life with their mother. When Keiko finds a new boyfriend, she leaves the children alone, giving some money to Akira and assigning him to take care of his siblings. When the money finishes, Akira manages to find means to survive with the youngsters without power supply, gas or water at home, and with the landlord asking for the rental. [IMDB]\n\n\n\nGeneral\nComplete name                    : Nobody.Knows.2004.DVDRip.XviD.AC3.HORiZON-ArtSubs\nFormat                           : AVI\nFormat/Info                      : Audio Video Interleave\nFile size                        : 1.95 GiB\nDuration                         : 2h 20mn\nOverall bit rate                 : 1 985 Kbps\nWriting application              : FairUse Wizard - http://fairusewizard.com\nWriting library                  : The best and REALLY easy backup tool\n\nVideo\nID                               : 0\nFormat                           : MPEG-4 Visual\nFormat profile                   : Advanced Simple@L5\nFormat settings, BVOP            : Yes\nFormat settings, QPel            : No\nFormat settings, GMC             : No warppoints\nFormat settings, Matrix          : Default (H.263)\nMuxing mode                      : Packed bitstream\nCodec ID                         : XVID\nCodec ID/Hint                    : XviD\nDuration                         : 2h 20mn\nBit rate                         : 1 781 Kbps\nWidth                            : 624 pixels\nHeight                           : 384 pixels\nDisplay aspect ratio             : 1.625\nFrame rate                       : 29.970 fps\nColor space                      : YUV\nChroma subsampling               : 4:2:0\nBit depth                        : 8 bits\nScan type                        : Progressive\nCompression mode                 : Lossy\nBits/(Pixel*Frame)               : 0.248\nStream size                      : 1.75 GiB (90%)\nWriting library                  : XviD 1.1.0 (UTC 2005-11-22)\n\nAudio\nID                               : 1\nFormat                           : AC-3\nFormat/Info                      : Audio Coding 3\nMode extension                   : CM (complete main)\nCodec ID                         : 2000\nDuration                         : 2h 20mn\nBit rate mode                    : Constant\nBit rate                         : 192 Kbps\nChannel(s)                       : 2 channels\nChannel positions                : Front: L R\nSampling rate                    : 48.0 KHz\nBit depth                        : 16 bits\nCompression mode                 : Lossy\nStream size                      : 193 MiB (10%)\nAlignment                        : Split accross interleaves\nInterleave, duration             : 33 ms (1.00 video frame)\nInterleave, preload duration     : 500 ms\n\n\n","torrent":{"xt":"urn:btih:41e1d642616966fa857307bd46eedf7c84654cfe","amp;dn":"Nobody.Knows.2004.DVDRip.XviD.AC3.HORiZON-ArtSubs","amp;tr":["udp%3A%2F%2Ftracker.openbittorrent.com%3A80","udp%3A%2F%2Fopen.demonii.com%3A1337","udp%3A%2F%2Ftracker.coppersurfer.tk%3A6969","udp%3A%2F%2Fexodus.desync.com%3A6969"],"infoHash":"41e1d642616966fa857307bd46eedf7c84654cfe","infoHashBuffer":{"type":"Buffer","data":[65,225,214,66,97,105,102,250,133,115,7,189,70,238,223,124,132,101,76,254]},"announce":[],"urlList":[]}}